<svg xmlns="http://www.w3.org/2000/svg" viewBox="0 0 512.19 512.22">
    <defs>
        <style>.cls-1{fill:#0076d1;}</style>
    </defs>
    <title>Asset 1</title>
    <g id="Layer_2" data-name="Layer 2">
        <g id="Layer_1-2" data-name="Layer 1">
            <path class="cls-1" d="M413.05,106h4a13.72,13.72,0,0,0,3.85-.06c2.05-.64,4.44-.27,6.15-1.94h2c2.13,0,4.76.78,6.24-.19,2-1.3,4-.11,5.88-1.31s4.09-.27,6.14-.5c.73-.08,1.74.33,1.74-1h2c3.3.22,6.36-1.53,9.68-1.2.08,0,.21-.52.32-.8h4c1.61-.16,3.26.32,4.84-.32a21,21,0,0,1,4.28-1.61,37.07,37.07,0,0,1,4.95-.08c1.57-.06,3.29.48,4.56-1,2.91.24,5.52-1.37,8.53-1.1s5.9-1.51,9-.9c1.57-1.62,3.68-.65,5.48-1.18.18,0,.24-.53.35-.82,1.62.17,3.7-.72,4.72.47.75.88.28,2.84.28,4.32q0,103.42,0,206.86,0,51.21.07,102.43c0,2.28-.74,3.44-2.43,5-6,5.48-12.74,9.91-18.73,15.36-4.59,4.18-9.86,7.62-14.65,11.64-5.67,4.76-11.18,9.75-17.11,14.15-5.77,4.28-11.08,9.1-16.94,13.25a67.25,67.25,0,0,0-7,6c-5.78,5.42-12.26,10-18.33,15-3.31,2.76-6.63,5.56-10,8.26-6,4.82-11.84,10-17.91,14.75-2.06,1.63-4.34,3.17-7.44,2.6a36,36,0,0,0-6.49-.08c-.15-.71.5-1.85-.79-2-2.84-.27-5.26-1.83-8-2.56a30.2,30.2,0,0,1-8.19-3.05c-2.71-1.68-6.26-1-8.59-3.42-2.59.54-4.34-1.58-6.62-2.19-3.36-.91-6.67-2.32-10-3.51-7.54-2.7-15-5.65-22.56-8.25-5.1-1.76-10-4-15.16-5.67a57.45,57.45,0,0,1-8.64-3.27c-2.71-1.37-5.83-2-8.75-2.95-1.91-.64-3.53-1.83-5.59-2.27-3.44-.74-6.58-2.54-10.06-3.43-2.95-.76-5.63-2.56-8.57-3.38-3.14-.87-5.88-2.73-9.22-3.16-3-.4-5.29-3.54-8.76-2.92-3.51-2-7.41-3-11.17-4.43-3.15-1.16-6.48-2-9.5-3.57s-6.75-1.44-9.35-4c-.09-.09-.33,0-.49,0a126.93,126.93,0,0,1-18.21-6.7c-.87-.39-2.62.29-2.73,1.18a26.89,26.89,0,0,0-.06,3.48q0,28.72,0,57.46a29.21,29.21,0,0,0,0,4.49c.26,1.59-1.52,2.53-1,4.09-1.27.49-1.93-.85-3-1-1.43-1.9-2.84-3.86-4.11-5.82-1.42-2.22-3.63-3.71-4.85-6-3.35-6.19-8.06-11.36-12.25-16.92-1.55-2.05-3.42-3.88-4.74-6.05-4.57-7.46-10.4-14-15.45-21.07a121.53,121.53,0,0,0-7.52-9.93c-3.12-3.58-5.34-7.9-8.66-11.39a32.47,32.47,0,0,1-4.38-5.68c-3.56-6-8.27-11.21-12.38-16.83-3.39-4.62-6.12-9.8-10.49-13.68.07-2.42-3.3-2.73-3.18-5.18-2.48-3.15-5-6.27-7.42-9.43-1.55-2-3.08-4.05-4.56-6.11-1.93-2.69-3.72-5.49-5.72-8.12-2.63-3.48-7-4.11-10.61-5.73-4.35-1.92-8.55-4.35-13.32-5.24-.84-2.26-3.59-1.26-4.83-2.83-2.21.84-3.08-2.28-4.63-1.9-2.52.62-3.43-1.57-5.18-2.19a216.38,216.38,0,0,1-22.94-9.77c-3.2-1.58-6.94-1.77-9.81-4.12-.4-.33-1.3-.05-2-.05a.76.76,0,0,1-1-.79c0-1.33,0-2.67,0-4Q.05,260,0,187.75a10.66,10.66,0,0,1,2.56-7c2.27-3,5.2-5.43,6.72-9.16,1-2.33,3.39-4.25,5.17-6.33,3.48-4,6.3-8.62,10.19-12.31.58-2.64,3-4,4.37-6.16a124.55,124.55,0,0,1,9.44-12.6c2.82-3.5,5.36-7.21,8.41-10.55,2.53-2.77,6.5-5.46,10.12-5.52a9.83,9.83,0,0,0,4.52-1.2c2.17-1.17,4.61-.91,6.72-1.9s4.24-2.07,6.68-2a6.49,6.49,0,0,0,2.67-.81c.87-.34,1.5-1.3,2.5-1.19,3.65.43,6.66-1.63,9.94-2.59a12.21,12.21,0,0,1,2.82-.4c1-.06,2,.12,2.63-.92a2.64,2.64,0,0,1,3-1.08,5.76,5.76,0,0,0,5-1.15c1.45-1.46,3.12-.85,4.55-1.16,3.36-.73,6.24-3.23,9.9-2.7.82.11,1.08-.85,1.61-.93,1.56-.22,2.83-1.52,4.57-1.12a2.15,2.15,0,0,0,1.86-.31c2.48-1.79,5.52-2,8.4-2.6a19,19,0,0,0,2.14-.88c1.48-.44,2.79-1.63,4.53-1.19a2.06,2.06,0,0,0,1.47,0c4.1-2.86,9.38-2.14,13.62-4.54,3.74.21,6.8-2.23,10.48-2.59,2.48-.25,4.84-2.09,7.48-2.31,3.48-.31,6.29-3.12,10-2.53,2.88-2.5,7.11-1.25,10-3.55,1.21-1,2.7.2,3.7-.71,1.55-1.39,3.81-.22,5.31-1.72s3.49-.53,5-1.12c2.36-.91,4.49-2.24,7.22-2,1,.1,2.66-2.43,2.72-3.65.05-1,0-2,0-3V4.81c0-1.16,0-2.33,0-3.49S218.57,0,219.56,0c1.49.06,3,0,4.49,0,.14.62-.39,1.58.37,1.81,4.1,1.27,7.22,4.24,10.9,6.21,1.65.88,3.15,2,4.77,3s3.85,1.58,5.22,2.94,3.38,1.7,4.87,2.77c7,5,14.77,8.66,22,13.26a56.93,56.93,0,0,1,6.66,4.36c2.07,1.75,4.7,2.37,6.92,3.82,3.38,2.22,6.82,4.36,10.34,6.35q7.73,4.37,15.19,9.14c6.41,4.09,13,8,19.64,11.62,4.92,2.67,9.54,5.84,14.32,8.7,7.61,4.55,15.36,8.86,22.88,13.55C373.63,91,378.81,95,385,97.43c.15.06.23.25.36.35a97,97,0,0,0,12.77,7.73,8.42,8.42,0,0,1,3.11,2.14c1,1.32,2.14,2.12,3.5.37,2.63.45,4.9-1.67,7.58-1C412.73,107.1,413.17,106.65,413.05,106Zm-12,145V117a15.78,15.78,0,0,1,0-3c.42-2.15-.88-1.86-2.3-2.1-1.79-.29-3,1.44-4.59,1-2.4-.59-4.39.84-6.57,1.21-.93.16-2,1-3.11.82-2.65-.39-5,.6-7.38,1.51a4.58,4.58,0,0,1-1.79.5c-3.53,0-6.81,1.22-10.2,1.86-2.47.47-4.89,1.8-7.56,1.16a1.68,1.68,0,0,0-1.38.28c-2.51,1.72-5.38,1.85-8.29,1.71a3,3,0,0,0-1.45.11c-6.08,3.3-13.29,2-19.48,4.88-4.62-.85-8.54,2.91-13.17,2-5.78,2.07-11.9,2.64-17.84,4-3.21.73-6.49,1.2-9.66,2.07a33.48,33.48,0,0,1-5.09,1,47.75,47.75,0,0,0-9.63,2.06c-1,.35-2,1-3.13.83a11.11,11.11,0,0,0-6.53,1.16,11.27,11.27,0,0,1-4.64.87,9.81,9.81,0,0,0-2.49,0c-4.5,1.42-8.86,3.42-13.77,3a1.82,1.82,0,0,0-.85.35,13.24,13.24,0,0,1-7.82,1.64,4.63,4.63,0,0,0-1.94.15c-5.26,2.18-11,2.38-16.43,3.72-1.23.31-2.17,1.31-3.56,1.16s-2.91-.45-3.91.13a15.4,15.4,0,0,1-8.76,1.84,2.89,2.89,0,0,0-1.41.21c-3.39,1.83-7.26,2-10.88,2.59-4.21.69-8.2,2.89-12.64,2.19-3.17,2.48-7.22,1.84-10.81,2.8-2.51.67-5.22,1.16-7.86,1.61s-5.55,1.32-8.35,1.48c-1.4.09-2.08,1.48-3.59,1.18-1.24-.25-2.91-.39-3.84.24-3.36,2.26-7.33,1.77-10.94,2.48-4.17.82-8.19,2.9-12.63,2.21-5.57,2.27-11.66,2.36-17.3,4.13-2.41.75-4.85.3-7,1.07a34.39,34.39,0,0,1-8.74,1.9c-1.93.15-3.76,1.35-5.7,1.85-.91.23-1,.68-1,1.35,0,.84,0,1.67,0,2.5V360.31c0,.84,0,1.67,0,2.5.1,1.31.88,2.28,2.15,2.17,3.78-.34,7.4.67,11.09,1,5.51.5,11.08-.6,16.61.92,2.71.74,5.69.25,8.6.95s6.32.43,9.45.09,6,1,9.09,1.07c3.22.1,6.52-.51,9.59,1,7.38-.16,14.67,1.72,22.08,1,1.16-.11,2.67-.48,3.44.07,2.42,1.72,5.27.05,7.53,1.18,2.74,1.36,5.48.44,8.21.71,4.18.41,8.5-.8,12.58,1,6.09-.74,12,1.59,18.08,1,2.6-.26,5.07.5,7.6.9,2.77.42,5.65.09,8.49.09.16,0,.38-.07.49,0,2.69,1.9,5.89.17,8.55,1.11,2.91,1,5.74.81,8.63.87,3.5.06,7.09-.46,10.46.19,2,.39,4.08,1,6.11.75,2.23-.32,4,1,6.1,1.06,5.87.26,11.75-.48,17.6.93,3.09.75,6.53-.75,9.57,1.08,5.1-.7,10,.89,15.08,1.05,4,.13,8.19-1,12.09.95,4.76-.58,9.3,1.52,14.09,1.06,3.14-.3,6.33-.06,9.49-.06.84,0,2-.35,2.45.06,1.9,1.74,4.15,1,6.13.83,2.39-.23,4.27,1.18,6.59,1.2,4.87.05,9.72-.55,14.63.77,3.18.85,6.67.33,10.08,1,3.86.73,8,.14,12,.19,1.16,0,1.37-.53,1.31-1.52-.07-1.16,0-2.33,0-3.5Z"/>
        </g>
    </g>
</svg>
