<svg version="1.1" id="Layer_1"
    xmlns="http://www.w3.org/2000/svg"
    xmlns:xlink="http://www.w3.org/1999/xlink" x="0px" y="0px" viewBox="0 0 1530 281" style="enable-background:new 0 0 1530 281;" xml:space="preserve">
    <style type="text/css">
    .st0{fill:none;stroke:#979797;}
    .st1{fill:#4A4A4A;}
    .st2{font-family:'IBMPlexSans';}
    .st3{font-size:18px;}
    .st4{fill-rule:evenodd;clip-rule:evenodd;fill:url(#SVGID_1_);}
    .st5{fill:#FFFFFF;}
    .st6{fill-rule:evenodd;clip-rule:evenodd;fill:#4A4A4A;}
    .st7{fill:none;stroke:#4A4A4A;}
    .st8{fill-rule:evenodd;clip-rule:evenodd;fill:url(#SVGID_2_);}
    .st9{fill-rule:evenodd;clip-rule:evenodd;fill:url(#SVGID_3_);}
    .st10{fill-rule:evenodd;clip-rule:evenodd;fill:url(#SVGID_4_);}
    .st11{fill-rule:evenodd;clip-rule:evenodd;fill:url(#SVGID_5_);}
    .st12{fill-rule:evenodd;clip-rule:evenodd;fill:url(#SVGID_6_);}
    .st13{fill-rule:evenodd;clip-rule:evenodd;fill:url(#SVGID_7_);}
    .st14{fill-rule:evenodd;clip-rule:evenodd;fill:url(#SVGID_8_);}
    .st15{fill-rule:evenodd;clip-rule:evenodd;fill:url(#SVGID_9_);}
    .st16{fill-rule:evenodd;clip-rule:evenodd;fill:url(#SVGID_10_);}
    .st17{fill:url(#SVGID_11_);}
    .st18{fill:url(#SVGID_12_);}
    .st19{fill:url(#SVGID_13_);}
    .st20{fill:url(#SVGID_14_);}
    .st21{fill:url(#SVGID_15_);}
    .st22{fill:url(#SVGID_16_);}
    .st23{fill:url(#SVGID_17_);}
    .st24{fill:url(#SVGID_18_);}
    .st25{fill:url(#SVGID_19_);}
    .st26{fill:url(#SVGID_20_);}
    .st27{fill:url(#SVGID_21_);}
    </style>
    <path id="Line" class="st0" d="M0,205h1529.5"/>
    <g id="CM_x5F_Group" class="fragment fade-up" data-fragment-index="9">
        <g id="text_8_">
            <text transform="matrix(1 0 0 1 1322.171 271)" class="st1 st2 st3">Cheer &amp; be Merry!</text>

            <linearGradient id="SVGID_1_" gradientUnits="userSpaceOnUse" x1="33.247" y1="292.753" x2="53.7531" y2="272.2469" gradientTransform="matrix(1 0 0 -1 1250 542)">
                <stop offset="0" style="stop-color:#EC726E"/>6
                <stop offset="1" style="stop-color:#FBB236"/>
            </linearGradient>
            <circle class="st4" cx="1300.5" cy="266.5" r="14.5"/>
            <text transform="matrix(1 0 0 1 1290.2 273)" class="st5 st2 st3">10</text>
        </g>
        <g id="stick_8_">
            <circle id="Oval-4-Copy-4" class="st6" cx="1411" cy="205" r="7"/>
            <path id="Path-3-Copy-4" class="st7" d="M1411,255v-51"/>
        </g>
    </g>
    <g id="DP_x5F_Group" class="fragment fade-down" data-fragment-index="8">
        <g id="text_7_">
            <text transform="matrix(1 0 0 1 1159.0811 143)" class="st1 st2 st3">Deploy to Production</text>

            <linearGradient id="SVGID_2_" gradientUnits="userSpaceOnUse" x1="4.247" y1="285.7531" x2="24.753" y2="265.2469" gradientTransform="matrix(1 0 0 -1 1118 414)">
                <stop offset="0" style="stop-color:#EC726E"/>
                <stop offset="1" style="stop-color:#FBB236"/>
            </linearGradient>
            <circle class="st8" cx="1132.5" cy="138.5" r="14.5"/>
            <text transform="matrix(1 0 0 1 1127 144)" class="st5 st2 st3">9</text>
        </g>
        <g id="stick_7_">
            <circle class="st6" cx="1213" cy="204" r="7"/>
            <path class="st7" d="M1212.8,204.1v-51"/>
        </g>
    </g>
    <g id="Integ_x5F_Group" class="fragment fade-up" data-fragment-index="7">
        <g id="text_6_">
            <text transform="matrix(1 0 0 1 997.4131 273)" class="st1 st2 st3">Run Auto. Integration Tests</text>

            <linearGradient id="SVGID_3_" gradientUnits="userSpaceOnUse" x1="4.247" y1="285.7531" x2="24.753" y2="265.2469" gradientTransform="matrix(1 0 0 -1 953 542)">
                <stop offset="0" style="stop-color:#EC726E"/>
                <stop offset="1" style="stop-color:#FBB236"/>
            </linearGradient>
            <circle class="st9" cx="967.5" cy="266.5" r="14.5"/>
            <text transform="matrix(1 0 0 1 962.1 272)" class="st5 st2 st3">8</text>
        </g>
        <g id="stick_6_">
            <circle id="Oval-4-Copy-3" class="st6" cx="1073" cy="206" r="7"/>
            <path id="Path-3-Copy-3" class="st7" d="M1073,258v-51"/>
        </g>
    </g>
    <g id="DI_x5F_Group" class="fragment fade-down" data-fragment-index="6">
        <g id="text_5_">
            <text transform="matrix(1 0 0 1 901.0969 145)" class="st1 st2 st3">Deploy to integration</text>

            <linearGradient id="SVGID_4_" gradientUnits="userSpaceOnUse" x1="4.247" y1="285.7531" x2="24.753" y2="265.2469" gradientTransform="matrix(1 0 0 -1 859 414)">
                <stop offset="0" style="stop-color:#EC726E"/>
                <stop offset="1" style="stop-color:#FBB236"/>
            </linearGradient>
            <circle class="st10" cx="873.5" cy="138.5" r="14.5"/>
            <text transform="matrix(1 0 0 1 868.1 144)" class="st5 st2 st3">7</text>
        </g>
        <g id="stick_5_">
            <circle class="st6" cx="926" cy="205" r="7"/>
            <path class="st7" d="M925.8,205.1v-51"/>
        </g>
    </g>
    <g id="TRM_x5F_Group" class="fragment fade-up" data-fragment-index="5">
        <g id="text_4_">
            <text transform="matrix(1 0 0 1 722.149 273)" class="st1 st2 st3">Tests, Review &amp; Merge</text>

            <linearGradient id="SVGID_5_" gradientUnits="userSpaceOnUse" x1="4.247" y1="285.7531" x2="24.753" y2="265.2469" gradientTransform="matrix(1 0 0 -1 675 542)">
                <stop offset="0" style="stop-color:#EC726E"/>
                <stop offset="1" style="stop-color:#FBB236"/>
            </linearGradient>
            <circle class="st11" cx="689.5" cy="266.5" r="14.5"/>
            <text transform="matrix(1 0 0 1 684.1 272)" class="st5 st2 st3">6</text>
        </g>
        <g id="stick_4_">
            <circle class="st6" cx="813" cy="205" r="7"/>
            <path class="st7" d="M813,255v-51"/>
        </g>
    </g>
    <g id="PR_x5F_Group" class="fragment fade-down" data-fragment-index="4">
        <g id="text_3_">
            <text transform="matrix(1 0 0 1 615.184 145)" class="st1 st2 st3">Create Pull Request</text>

            <linearGradient id="SVGID_6_" gradientUnits="userSpaceOnUse" x1="4.247" y1="285.7531" x2="24.753" y2="265.2469" gradientTransform="matrix(1 0 0 -1 572 414)">
                <stop offset="0" style="stop-color:#EC726E"/>
                <stop offset="1" style="stop-color:#FBB236"/>
            </linearGradient>
            <circle class="st12" cx="586.5" cy="138.5" r="14.5"/>
            <text transform="matrix(1 0 0 1 581.1 144)" class="st5 st2 st3">5</text>
        </g>
        <g id="stick_3_">
            <circle class="st6" cx="668" cy="205" r="7"/>
            <path class="st7" d="M667.8,205.1v-51"/>
        </g>
    </g>
    <g id="CP_x5F_Group" class="fragment fade-up" data-fragment-index="3">
        <g>
            <text transform="matrix(1 0 0 1 490.338 273)" class="st1 st2 st3">Commit &amp; Push</text>

            <linearGradient id="SVGID_7_" gradientUnits="userSpaceOnUse" x1="4.247" y1="285.7531" x2="24.753" y2="265.2469" gradientTransform="matrix(1 0 0 -1 447 542)">
                <stop offset="0" style="stop-color:#EC726E"/>
                <stop offset="1" style="stop-color:#FBB236"/>
            </linearGradient>
            <circle class="st13" cx="461.5" cy="266.5" r="14.5"/>
            <text transform="matrix(1 0 0 1 456.1 272)" class="st5 st2 st3">4</text>
        </g>
        <g>
            <circle class="st6" cx="529" cy="205" r="7"/>
            <path class="st7" d="M529,255v-51"/>
        </g>
    </g>
    <g id="CCTR_x5F_Group" class="fragment fade-down" data-fragment-index="2">
        <g id="text_2_">
            <text transform="matrix(1 0 0 1 319.026 145)" class="st1 st2 st3">Clone, Code, Test, Repeat!</text>

            <linearGradient id="SVGID_8_" gradientUnits="userSpaceOnUse" x1="4.247" y1="285.7531" x2="24.753" y2="265.2469" gradientTransform="matrix(1 0 0 -1 279 414)">
                <stop offset="0" style="stop-color:#EC726E"/>
                <stop offset="1" style="stop-color:#FBB236"/>
            </linearGradient>
            <circle class="st14" cx="293.5" cy="138.5" r="14.5"/>
            <text transform="matrix(1 0 0 1 288.1 144)" class="st5 st2 st3">3</text>
        </g>
        <g id="stick_2_">
            <circle class="st6" cx="391" cy="205" r="7"/>
            <path class="st7" d="M390.8,205.1v-51"/>
        </g>
    </g>
    <g id="FB_x5F_Group" class="fragment fade-up" data-fragment-index="1">
        <g id="text_1_">
            <text transform="matrix(1 0 0 1 191.467 273)" class="st1 st2 st3">Create Feature Branch</text>

            <linearGradient id="SVGID_9_" gradientUnits="userSpaceOnUse" x1="4.247" y1="285.7531" x2="24.753" y2="265.2469" gradientTransform="matrix(1 0 0 -1 148 542)">
                <stop offset="0" style="stop-color:#EC726E"/>
                <stop offset="1" style="stop-color:#FBB236"/>
            </linearGradient>
            <circle class="st15" cx="162.5" cy="266.5" r="14.5"/>
            <text transform="matrix(1 0 0 1 157.1 272)" class="st5 st2 st3">2</text>
        </g>
        <g id="stick_1_">
            <circle class="st6" cx="240" cy="205" r="7"/>
            <path class="st7" d="M240,255v-51"/>
        </g>
    </g>
    <g id="WI_x5F_Group" class="fragment fade-down" data-fragment-index="0">
        <g id="text">
            <text transform="matrix(1 0 0 1 42.47 145)" class="st1 st2 st3">Create Work Item</text>

            <linearGradient id="SVGID_10_" gradientUnits="userSpaceOnUse" x1="4.247" y1="285.7531" x2="24.753" y2="265.2469" gradientTransform="matrix(1 0 0 -1 0 414)">
                <stop offset="0" style="stop-color:#EC726E"/>
                <stop offset="1" style="stop-color:#FBB236"/>
            </linearGradient>
            <circle class="st16" cx="14.5" cy="138.5" r="14.5"/>
            <text transform="matrix(1 0 0 1 9.1 144)" class="st5 st2 st3">1</text>
        </g>
        <g id="stick">
            <circle class="st6" cx="107" cy="205" r="7"/>
            <path class="st7" d="M106.8,205.1v-51"/>
        </g>
    </g>
    <g id="Title">

        <linearGradient id="SVGID_11_" gradientUnits="userSpaceOnUse" x1="3.7034" y1="279.0431" x2="81.1716" y2="201.5749" gradientTransform="matrix(1 0 0 -1 0 282)">
            <stop offset="0" style="stop-color:#EC726E"/>
            <stop offset="1" style="stop-color:#FBB236"/>
        </linearGradient>
        <path class="st17" d="M2.7,8.7C2.7,3.1,5.2,0,9.4,0c2.8,0,4.7,1.3,5.8,3.7l-1.6,1C12.9,3,11.5,1.8,9.5,1.8C6.6,1.8,4.9,4,4.9,7.5
        V10c0,3.4,1.7,5.5,4.6,5.5c2.1,0,3.6-1.2,4.3-3l1.6,1c-1.1,2.4-3.1,3.8-5.9,3.8C5.2,17.3,2.7,14.3,2.7,8.7z"/>

        <linearGradient id="SVGID_12_" gradientUnits="userSpaceOnUse" x1="9.5022" y1="284.8478" x2="86.9704" y2="207.3797" gradientTransform="matrix(1 0 0 -1 0 282)">
            <stop offset="0" style="stop-color:#EC726E"/>
            <stop offset="1" style="stop-color:#FBB236"/>
        </linearGradient>
        <path class="st18" d="M17.6,17v-1.7H20V1.9h-2.4V0.2h6.7v1.7H22v13.4h2.4V17H17.6z"/>

        <linearGradient id="SVGID_13_" gradientUnits="userSpaceOnUse" x1="15.9754" y1="291.3211" x2="93.4436" y2="213.8529" gradientTransform="matrix(1 0 0 -1 0 282)">
            <stop offset="0" style="stop-color:#EC726E"/>
            <stop offset="1" style="stop-color:#FBB236"/>
        </linearGradient>
        <path class="st19" d="M27.2,8.7c0-5.6,2.5-8.8,6.7-8.8c2.8,0,4.7,1.3,5.8,3.7l-1.6,1C37.4,2.9,36,1.7,34,1.7
        c-2.9,0-4.6,2.3-4.6,5.7V10c0,3.4,1.7,5.5,4.6,5.5c2.1,0,3.6-1.2,4.3-3l1.6,1c-1.1,2.4-3.1,3.8-5.9,3.8
        C29.7,17.3,27.2,14.3,27.2,8.7z"/>

        <linearGradient id="SVGID_14_" gradientUnits="userSpaceOnUse" x1="22.6145" y1="297.9602" x2="100.0827" y2="220.492" gradientTransform="matrix(1 0 0 -1 0 282)">
            <stop offset="0" style="stop-color:#EC726E"/>
            <stop offset="1" style="stop-color:#FBB236"/>
        </linearGradient>
        <path class="st20" d="M42.9,0.2h5.6c4.2,0,6.9,2.8,6.9,8.4S52.7,17,48.5,17h-5.6V0.2z M48.6,15.2c2.8,0,4.7-1.9,4.7-5.2V7.3
        c0-3.3-1.9-5.2-4.7-5.2H45v13.2h3.6V15.2z"/>

        <linearGradient id="SVGID_15_" gradientUnits="userSpaceOnUse" x1="33.6023" y1="308.948" x2="111.0705" y2="231.4798" gradientTransform="matrix(1 0 0 -1 0 282)">
            <stop offset="0" style="stop-color:#EC726E"/>
            <stop offset="1" style="stop-color:#FBB236"/>
        </linearGradient>
        <path class="st21" d="M64.7,17V0.2h6.7c3,0,4.7,1.8,4.7,4.8s-1.7,4.8-4.7,4.8h-4.7V17H64.7z M66.7,8.1h4.7c1.6,0,2.5-0.9,2.5-2.4
        V4.4C73.9,2.9,73,2,71.4,2h-4.7C66.7,2,66.7,8.1,66.7,8.1z"/>

        <linearGradient id="SVGID_16_" gradientUnits="userSpaceOnUse" x1="39.0522" y1="314.3979" x2="116.5203" y2="236.9296" gradientTransform="matrix(1 0 0 -1 0 282)">
            <stop offset="0" style="stop-color:#EC726E"/>
            <stop offset="1" style="stop-color:#FBB236"/>
        </linearGradient>
        <path class="st22" d="M79.1,17V4.6H81v2.3h0.1c0.4-1.2,1.6-2.3,3.6-2.3h0.7v1.9h-1.1c-2.1,0-3.3,0.9-3.3,2.1V17H79.1z"/>

        <linearGradient id="SVGID_17_" gradientUnits="userSpaceOnUse" x1="44.2256" y1="319.5713" x2="121.6938" y2="242.1031" gradientTransform="matrix(1 0 0 -1 0 282)">
            <stop offset="0" style="stop-color:#EC726E"/>
            <stop offset="1" style="stop-color:#FBB236"/>
        </linearGradient>
        <path class="st23" d="M87,10.8c0-3.9,2.3-6.5,5.6-6.5c3.3,0,5.6,2.5,5.6,6.5s-2.3,6.5-5.6,6.5C89.2,17.3,87,14.7,87,10.8z
         M96.1,11.7V9.9c0-2.6-1.5-3.9-3.5-3.9C90.5,6,89,7.3,89,9.9v1.8c0,2.6,1.5,3.9,3.5,3.9C94.6,15.6,96.1,14.3,96.1,11.7z"/>

        <linearGradient id="SVGID_18_" gradientUnits="userSpaceOnUse" x1="50.8596" y1="326.2054" x2="128.3278" y2="248.7371" gradientTransform="matrix(1 0 0 -1 0 282)">
            <stop offset="0" style="stop-color:#EC726E"/>
            <stop offset="1" style="stop-color:#FBB236"/>
        </linearGradient>
        <path class="st24" d="M100.4,10.8c0-4,2-6.5,5.5-6.5c2.4,0,3.9,1.2,4.6,2.9L108.9,8c-0.5-1.3-1.5-2-3-2c-2.3,0-3.5,1.6-3.5,3.7v2.1
        c0,2.2,1.2,3.7,3.5,3.7c1.6,0,2.7-0.7,3.4-2.2l1.4,0.9c-0.8,1.8-2.4,2.9-4.8,2.9C102.4,17.3,100.4,14.8,100.4,10.8z"/>

        <linearGradient id="SVGID_19_" gradientUnits="userSpaceOnUse" x1="56.9737" y1="332.3194" x2="134.4419" y2="254.8512" gradientTransform="matrix(1 0 0 -1 0 282)">
            <stop offset="0" style="stop-color:#EC726E"/>
            <stop offset="1" style="stop-color:#FBB236"/>
        </linearGradient>
        <path class="st25" d="M112.5,10.8c0-3.9,2.2-6.5,5.6-6.5c3.3,0,5.4,2.5,5.4,6v0.9h-8.9v0.6c0,2.1,1.4,3.7,3.7,3.7
        c1.6,0,2.8-0.8,3.4-2.1l1.4,1c-0.8,1.7-2.6,2.8-4.9,2.8C114.7,17.3,112.5,14.7,112.5,10.8z M114.5,9.7v0.2h6.8V9.6
        c0-2.2-1.3-3.6-3.3-3.6C115.9,5.9,114.5,7.5,114.5,9.7z"/>

        <linearGradient id="SVGID_20_" gradientUnits="userSpaceOnUse" x1="62.9754" y1="338.3211" x2="140.4436" y2="260.8529" gradientTransform="matrix(1 0 0 -1 0 282)">
            <stop offset="0" style="stop-color:#EC726E"/>
            <stop offset="1" style="stop-color:#FBB236"/>
        </linearGradient>
        <path class="st26" d="M125.4,14.9l1.4-1.1c1,1.2,2.1,1.9,3.7,1.9c1.6,0,2.6-0.7,2.6-2c0-1-0.5-1.7-2.2-1.9l-1-0.1
        c-2.3-0.3-4-1.3-4-3.6c0-2.4,1.9-3.6,4.4-3.6c2,0,3.3,0.7,4.3,2l-1.3,1.2c-0.6-0.8-1.6-1.5-3.2-1.5c-1.6,0-2.4,0.7-2.4,1.9
        s0.8,1.7,2.4,1.9l1,0.1c2.7,0.4,3.8,1.6,3.8,3.5c0,2.4-1.8,3.9-4.6,3.9C128,17.3,126.5,16.3,125.4,14.9z"/>

        <linearGradient id="SVGID_21_" gradientUnits="userSpaceOnUse" x1="68.8257" y1="344.1714" x2="146.2939" y2="266.7032" gradientTransform="matrix(1 0 0 -1 0 282)">
            <stop offset="0" style="stop-color:#EC726E"/>
            <stop offset="1" style="stop-color:#FBB236"/>
        </linearGradient>
        <path class="st27" d="M137.1,14.9l1.4-1.1c1,1.2,2.1,1.9,3.7,1.9c1.6,0,2.6-0.7,2.6-2c0-1-0.5-1.7-2.2-1.9l-1-0.1
        c-2.3-0.3-4-1.3-4-3.6c0-2.4,1.9-3.6,4.4-3.6c2,0,3.3,0.7,4.3,2l-1.3,1c-0.6-0.8-1.6-1.5-3.2-1.5c-1.6,0-2.4,0.7-2.4,1.9
        s0.8,1.7,2.4,1.9l1,0.1c2.7,0.4,3.8,1.6,3.8,3.5c0,2.4-1.8,3.9-4.6,3.9C139.7,17.3,138.2,16.3,137.1,14.9z"/>
    </g>
</svg>
